<?xml version="1.0" encoding="utf-8" standalone="no"?>
<!DOCTYPE svg PUBLIC "-//W3C//DTD SVG 1.1//EN"
  "http://www.w3.org/Graphics/SVG/1.1/DTD/svg11.dtd">
<!-- Created with matplotlib (https://matplotlib.org/) -->
<svg height="360pt" version="1.1" viewBox="0 0 720 360" width="720pt" xmlns="http://www.w3.org/2000/svg" xmlns:xlink="http://www.w3.org/1999/xlink">
 <defs>
  <style type="text/css">
*{stroke-linecap:butt;stroke-linejoin:round;}
  </style>
 </defs>
 <g id="figure_1">
  <g id="patch_1">
   <path d="M 0 360 
L 720 360 
L 720 0 
L 0 0 
z
" style="fill:#ffffff;"/>
  </g>
  <g id="axes_1">
   <g id="patch_2">
    <path d="M 90 315 
L 648 315 
L 648 43.2 
L 90 43.2 
z
" style="fill:#ffffff;"/>
   </g>
   <g id="PathCollection_1">
    <defs>
     <path d="M 0 3 
C 0.795609 3 1.55874 2.683901 2.12132 2.12132 
C 2.683901 1.55874 3 0.795609 3 0 
C 3 -0.795609 2.683901 -1.55874 2.12132 -2.12132 
C 1.55874 -2.683901 0.795609 -3 0 -3 
C -0.795609 -3 -1.55874 -2.683901 -2.12132 -2.12132 
C -2.683901 -1.55874 -3 -0.795609 -3 0 
C -3 0.795609 -2.683901 1.55874 -2.12132 2.12132 
C -1.55874 2.683901 -0.795609 3 0 3 
z
" id="mf0b50987ac" style="stroke:#1f77b4;"/>
    </defs>
    <g clip-path="url(#p58fb9bdcfa)">
     <use style="fill:#1f77b4;stroke:#1f77b4;" x="90" xlink:href="#mf0b50987ac" y="286.008"/>
     <use style="fill:#1f77b4;stroke:#1f77b4;" x="136.5" xlink:href="#mf0b50987ac" y="288.726"/>
     <use style="fill:#1f77b4;stroke:#1f77b4;" x="183" xlink:href="#mf0b50987ac" y="294.162"/>
     <use style="fill:#1f77b4;stroke:#1f77b4;" x="224.85" xlink:href="#mf0b50987ac" y="302.316"/>
    </g>
   </g>
   <g id="PathCollection_2">
    <defs>
     <path d="M 0 3 
C 0.795609 3 1.55874 2.683901 2.12132 2.12132 
C 2.683901 1.55874 3 0.795609 3 0 
C 3 -0.795609 2.683901 -1.55874 2.12132 -2.12132 
C 1.55874 -2.683901 0.795609 -3 0 -3 
C -0.795609 -3 -1.55874 -2.683901 -2.12132 -2.12132 
C -2.683901 -1.55874 -3 -0.795609 -3 0 
C -3 0.795609 -2.683901 1.55874 -2.12132 2.12132 
C -1.55874 2.683901 -0.795609 3 0 3 
z
" id="md069e9cbef" style="stroke:#ff7f0e;"/>
    </defs>
    <g clip-path="url(#p58fb9bdcfa)">
     <use style="fill:#ff7f0e;stroke:#ff7f0e;" x="90" xlink:href="#md069e9cbef" y="262.452"/>
     <use style="fill:#ff7f0e;stroke:#ff7f0e;" x="183" xlink:href="#md069e9cbef" y="270.606"/>
     <use style="fill:#ff7f0e;stroke:#ff7f0e;" x="229.5" xlink:href="#md069e9cbef" y="277.854"/>
     <use style="fill:#ff7f0e;stroke:#ff7f0e;" x="299.25" xlink:href="#md069e9cbef" y="300.504"/>
    </g>
   </g>
   <g id="PathCollection_3">
    <defs>
     <path d="M 0 3 
C 0.795609 3 1.55874 2.683901 2.12132 2.12132 
C 2.683901 1.55874 3 0.795609 3 0 
C 3 -0.795609 2.683901 -1.55874 2.12132 -2.12132 
C 1.55874 -2.683901 0.795609 -3 0 -3 
C -0.795609 -3 -1.55874 -2.683901 -2.12132 -2.12132 
C -2.683901 -1.55874 -3 -0.795609 -3 0 
C -3 0.795609 -2.683901 1.55874 -2.12132 2.12132 
C -1.55874 2.683901 -0.795609 3 0 3 
z
" id="m2265c44e96" style="stroke:#2ca02c;"/>
    </defs>
    <g clip-path="url(#p58fb9bdcfa)">
     <use style="fill:#2ca02c;stroke:#2ca02c;" x="90" xlink:href="#m2265c44e96" y="233.46"/>
     <use style="fill:#2ca02c;stroke:#2ca02c;" x="183" xlink:href="#m2265c44e96" y="242.52"/>
     <use style="fill:#2ca02c;stroke:#2ca02c;" x="276" xlink:href="#m2265c44e96" y="257.922"/>
     <use style="fill:#2ca02c;stroke:#2ca02c;" x="369" xlink:href="#m2265c44e96" y="297.786"/>
    </g>
   </g>
   <g id="PathCollection_4">
    <defs>
     <path d="M 0 3 
C 0.795609 3 1.55874 2.683901 2.12132 2.12132 
C 2.683901 1.55874 3 0.795609 3 0 
C 3 -0.795609 2.683901 -1.55874 2.12132 -2.12132 
C 1.55874 -2.683901 0.795609 -3 0 -3 
C -0.795609 -3 -1.55874 -2.683901 -2.12132 -2.12132 
C -2.683901 -1.55874 -3 -0.795609 -3 0 
C -3 0.795609 -2.683901 1.55874 -2.12132 2.12132 
C -1.55874 2.683901 -0.795609 3 0 3 
z
" id="m865040a171" style="stroke:#d62728;"/>
    </defs>
    <g clip-path="url(#p58fb9bdcfa)">
     <use style="fill:#d62728;stroke:#d62728;" x="90" xlink:href="#m865040a171" y="196.314"/>
     <use style="fill:#d62728;stroke:#d62728;" x="183" xlink:href="#m865040a171" y="206.28"/>
     <use style="fill:#d62728;stroke:#d62728;" x="276" xlink:href="#m865040a171" y="219.87"/>
     <use style="fill:#d62728;stroke:#d62728;" x="369" xlink:href="#m865040a171" y="251.58"/>
     <use style="fill:#d62728;stroke:#d62728;" x="415.5" xlink:href="#m865040a171" y="282.384"/>
     <use style="fill:#d62728;stroke:#d62728;" x="434.1" xlink:href="#m865040a171" y="295.068"/>
    </g>
   </g>
   <g id="PathCollection_5">
    <defs>
     <path d="M 0 3 
C 0.795609 3 1.55874 2.683901 2.12132 2.12132 
C 2.683901 1.55874 3 0.795609 3 0 
C 3 -0.795609 2.683901 -1.55874 2.12132 -2.12132 
C 1.55874 -2.683901 0.795609 -3 0 -3 
C -0.795609 -3 -1.55874 -2.683901 -2.12132 -2.12132 
C -2.683901 -1.55874 -3 -0.795609 -3 0 
C -3 0.795609 -2.683901 1.55874 -2.12132 2.12132 
C -1.55874 2.683901 -0.795609 3 0 3 
z
" id="m1a3f894c32" style="stroke:#9467bd;"/>
    </defs>
    <g clip-path="url(#p58fb9bdcfa)">
     <use style="fill:#9467bd;stroke:#9467bd;" x="90" xlink:href="#m1a3f894c32" y="154.638"/>
     <use style="fill:#9467bd;stroke:#9467bd;" x="183" xlink:href="#m1a3f894c32" y="162.792"/>
     <use style="fill:#9467bd;stroke:#9467bd;" x="276" xlink:href="#m1a3f894c32" y="179.1"/>
     <use style="fill:#9467bd;stroke:#9467bd;" x="322.5" xlink:href="#m1a3f894c32" y="188.16"/>
     <use style="fill:#9467bd;stroke:#9467bd;" x="462" xlink:href="#m1a3f894c32" y="257.922"/>
    </g>
   </g>
   <g id="PathCollection_6">
    <defs>
     <path d="M 0 3 
C 0.795609 3 1.55874 2.683901 2.12132 2.12132 
C 2.683901 1.55874 3 0.795609 3 0 
C 3 -0.795609 2.683901 -1.55874 2.12132 -2.12132 
C 1.55874 -2.683901 0.795609 -3 0 -3 
C -0.795609 -3 -1.55874 -2.683901 -2.12132 -2.12132 
C -2.683901 -1.55874 -3 -0.795609 -3 0 
C -3 0.795609 -2.683901 1.55874 -2.12132 2.12132 
C -1.55874 2.683901 -0.795609 3 0 3 
z
" id="m0534b686c3" style="stroke:#8c564b;"/>
    </defs>
    <g clip-path="url(#p58fb9bdcfa)">
     <use style="fill:#8c564b;stroke:#8c564b;" x="90" xlink:href="#m0534b686c3" y="104.808"/>
     <use style="fill:#8c564b;stroke:#8c564b;" x="183" xlink:href="#m0534b686c3" y="115.68"/>
     <use style="fill:#8c564b;stroke:#8c564b;" x="229.5" xlink:href="#m0534b686c3" y="123.834"/>
     <use style="fill:#8c564b;stroke:#8c564b;" x="322.5" xlink:href="#m0534b686c3" y="141.954"/>
     <use style="fill:#8c564b;stroke:#8c564b;" x="369" xlink:href="#m0534b686c3" y="153.732"/>
     <use style="fill:#8c564b;stroke:#8c564b;" x="462" xlink:href="#m0534b686c3" y="200.844"/>
     <use style="fill:#8c564b;stroke:#8c564b;" x="555" xlink:href="#m0534b686c3" y="276.042"/>
    </g>
   </g>
   <g id="PathCollection_7">
    <defs>
     <path d="M 0 3 
C 0.795609 3 1.55874 2.683901 2.12132 2.12132 
C 2.683901 1.55874 3 0.795609 3 0 
C 3 -0.795609 2.683901 -1.55874 2.12132 -2.12132 
C 1.55874 -2.683901 0.795609 -3 0 -3 
C -0.795609 -3 -1.55874 -2.683901 -2.12132 -2.12132 
C -2.683901 -1.55874 -3 -0.795609 -3 0 
C -3 0.795609 -2.683901 1.55874 -2.12132 2.12132 
C -1.55874 2.683901 -0.795609 3 0 3 
z
" id="md64bc44c0e" style="stroke:#e377c2;"/>
    </defs>
    <g clip-path="url(#p58fb9bdcfa)">
     <use style="fill:#e377c2;stroke:#e377c2;" x="90" xlink:href="#md64bc44c0e" y="52.26"/>
     <use style="fill:#e377c2;stroke:#e377c2;" x="183" xlink:href="#md64bc44c0e" y="63.132"/>
     <use style="fill:#e377c2;stroke:#e377c2;" x="276" xlink:href="#md64bc44c0e" y="76.722"/>
     <use style="fill:#e377c2;stroke:#e377c2;" x="369" xlink:href="#md64bc44c0e" y="97.56"/>
     <use style="fill:#e377c2;stroke:#e377c2;" x="508.5" xlink:href="#md64bc44c0e" y="166.416"/>
     <use style="fill:#e377c2;stroke:#e377c2;" x="555" xlink:href="#md64bc44c0e" y="201.75"/>
     <use style="fill:#e377c2;stroke:#e377c2;" x="601.5" xlink:href="#md64bc44c0e" y="249.768"/>
    </g>
   </g>
   <g id="matplotlib.axis_1">
    <g id="xtick_1">
     <g id="line2d_1">
      <path clip-path="url(#p58fb9bdcfa)" d="M 90 315 
L 90 43.2 
" style="fill:none;stroke:#b0b0b0;stroke-dasharray:2.96,1.28;stroke-dashoffset:0;stroke-width:0.8;"/>
     </g>
     <g id="line2d_2">
      <defs>
       <path d="M 0 0 
L 0 3.5 
" id="m2be584235d" style="stroke:#000000;stroke-width:0.8;"/>
      </defs>
      <g>
       <use style="stroke:#000000;stroke-width:0.8;" x="90" xlink:href="#m2be584235d" y="315"/>
      </g>
     </g>
     <g id="text_1">
      <!-- 0 -->
      <defs>
       <path d="M 31.78125 66.40625 
Q 24.171875 66.40625 20.328125 58.90625 
Q 16.5 51.421875 16.5 36.375 
Q 16.5 21.390625 20.328125 13.890625 
Q 24.171875 6.390625 31.78125 6.390625 
Q 39.453125 6.390625 43.28125 13.890625 
Q 47.125 21.390625 47.125 36.375 
Q 47.125 51.421875 43.28125 58.90625 
Q 39.453125 66.40625 31.78125 66.40625 
z
M 31.78125 74.21875 
Q 44.046875 74.21875 50.515625 64.515625 
Q 56.984375 54.828125 56.984375 36.375 
Q 56.984375 17.96875 50.515625 8.265625 
Q 44.046875 -1.421875 31.78125 -1.421875 
Q 19.53125 -1.421875 13.0625 8.265625 
Q 6.59375 17.96875 6.59375 36.375 
Q 6.59375 54.828125 13.0625 64.515625 
Q 19.53125 74.21875 31.78125 74.21875 
z
" id="DejaVuSans-48"/>
      </defs>
      <g transform="translate(86.81875 329.598437)scale(0.1 -0.1)">
       <use xlink:href="#DejaVuSans-48"/>
      </g>
     </g>
    </g>
    <g id="xtick_2">
     <g id="line2d_3">
      <path clip-path="url(#p58fb9bdcfa)" d="M 159.75 315 
L 159.75 43.2 
" style="fill:none;stroke:#b0b0b0;stroke-dasharray:2.96,1.28;stroke-dashoffset:0;stroke-width:0.8;"/>
     </g>
     <g id="line2d_4">
      <g>
       <use style="stroke:#000000;stroke-width:0.8;" x="159.75" xlink:href="#m2be584235d" y="315"/>
      </g>
     </g>
     <g id="text_2">
      <!-- 25 -->
      <defs>
       <path d="M 19.1875 8.296875 
L 53.609375 8.296875 
L 53.609375 0 
L 7.328125 0 
L 7.328125 8.296875 
Q 12.9375 14.109375 22.625 23.890625 
Q 32.328125 33.6875 34.8125 36.53125 
Q 39.546875 41.84375 41.421875 45.53125 
Q 43.3125 49.21875 43.3125 52.78125 
Q 43.3125 58.59375 39.234375 62.25 
Q 35.15625 65.921875 28.609375 65.921875 
Q 23.96875 65.921875 18.8125 64.3125 
Q 13.671875 62.703125 7.8125 59.421875 
L 7.8125 69.390625 
Q 13.765625 71.78125 18.9375 73 
Q 24.125 74.21875 28.421875 74.21875 
Q 39.75 74.21875 46.484375 68.546875 
Q 53.21875 62.890625 53.21875 53.421875 
Q 53.21875 48.921875 51.53125 44.890625 
Q 49.859375 40.875 45.40625 35.40625 
Q 44.1875 33.984375 37.640625 27.21875 
Q 31.109375 20.453125 19.1875 8.296875 
z
" id="DejaVuSans-50"/>
       <path d="M 10.796875 72.90625 
L 49.515625 72.90625 
L 49.515625 64.59375 
L 19.828125 64.59375 
L 19.828125 46.734375 
Q 21.96875 47.46875 24.109375 47.828125 
Q 26.265625 48.1875 28.421875 48.1875 
Q 40.625 48.1875 47.75 41.5 
Q 54.890625 34.8125 54.890625 23.390625 
Q 54.890625 11.625 47.5625 5.09375 
Q 40.234375 -1.421875 26.90625 -1.421875 
Q 22.3125 -1.421875 17.546875 -0.640625 
Q 12.796875 0.140625 7.71875 1.703125 
L 7.71875 11.625 
Q 12.109375 9.234375 16.796875 8.0625 
Q 21.484375 6.890625 26.703125 6.890625 
Q 35.15625 6.890625 40.078125 11.328125 
Q 45.015625 15.765625 45.015625 23.390625 
Q 45.015625 31 40.078125 35.4375 
Q 35.15625 39.890625 26.703125 39.890625 
Q 22.75 39.890625 18.8125 39.015625 
Q 14.890625 38.140625 10.796875 36.28125 
z
" id="DejaVuSans-53"/>
      </defs>
      <g transform="translate(153.3875 329.598437)scale(0.1 -0.1)">
       <use xlink:href="#DejaVuSans-50"/>
       <use x="63.623047" xlink:href="#DejaVuSans-53"/>
      </g>
     </g>
    </g>
    <g id="xtick_3">
     <g id="line2d_5">
      <path clip-path="url(#p58fb9bdcfa)" d="M 229.5 315 
L 229.5 43.2 
" style="fill:none;stroke:#b0b0b0;stroke-dasharray:2.96,1.28;stroke-dashoffset:0;stroke-width:0.8;"/>
     </g>
     <g id="line2d_6">
      <g>
       <use style="stroke:#000000;stroke-width:0.8;" x="229.5" xlink:href="#m2be584235d" y="315"/>
      </g>
     </g>
     <g id="text_3">
      <!-- 50 -->
      <g transform="translate(223.1375 329.598437)scale(0.1 -0.1)">
       <use xlink:href="#DejaVuSans-53"/>
       <use x="63.623047" xlink:href="#DejaVuSans-48"/>
      </g>
     </g>
    </g>
    <g id="xtick_4">
     <g id="line2d_7">
      <path clip-path="url(#p58fb9bdcfa)" d="M 299.25 315 
L 299.25 43.2 
" style="fill:none;stroke:#b0b0b0;stroke-dasharray:2.96,1.28;stroke-dashoffset:0;stroke-width:0.8;"/>
     </g>
     <g id="line2d_8">
      <g>
       <use style="stroke:#000000;stroke-width:0.8;" x="299.25" xlink:href="#m2be584235d" y="315"/>
      </g>
     </g>
     <g id="text_4">
      <!-- 75 -->
      <defs>
       <path d="M 8.203125 72.90625 
L 55.078125 72.90625 
L 55.078125 68.703125 
L 28.609375 0 
L 18.3125 0 
L 43.21875 64.59375 
L 8.203125 64.59375 
z
" id="DejaVuSans-55"/>
      </defs>
      <g transform="translate(292.8875 329.598437)scale(0.1 -0.1)">
       <use xlink:href="#DejaVuSans-55"/>
       <use x="63.623047" xlink:href="#DejaVuSans-53"/>
      </g>
     </g>
    </g>
    <g id="xtick_5">
     <g id="line2d_9">
      <path clip-path="url(#p58fb9bdcfa)" d="M 369 315 
L 369 43.2 
" style="fill:none;stroke:#b0b0b0;stroke-dasharray:2.96,1.28;stroke-dashoffset:0;stroke-width:0.8;"/>
     </g>
     <g id="line2d_10">
      <g>
       <use style="stroke:#000000;stroke-width:0.8;" x="369" xlink:href="#m2be584235d" y="315"/>
      </g>
     </g>
     <g id="text_5">
      <!-- 100 -->
      <defs>
       <path d="M 12.40625 8.296875 
L 28.515625 8.296875 
L 28.515625 63.921875 
L 10.984375 60.40625 
L 10.984375 69.390625 
L 28.421875 72.90625 
L 38.28125 72.90625 
L 38.28125 8.296875 
L 54.390625 8.296875 
L 54.390625 0 
L 12.40625 0 
z
" id="DejaVuSans-49"/>
      </defs>
      <g transform="translate(359.45625 329.598437)scale(0.1 -0.1)">
       <use xlink:href="#DejaVuSans-49"/>
       <use x="63.623047" xlink:href="#DejaVuSans-48"/>
       <use x="127.246094" xlink:href="#DejaVuSans-48"/>
      </g>
     </g>
    </g>
    <g id="xtick_6">
     <g id="line2d_11">
      <path clip-path="url(#p58fb9bdcfa)" d="M 438.75 315 
L 438.75 43.2 
" style="fill:none;stroke:#b0b0b0;stroke-dasharray:2.96,1.28;stroke-dashoffset:0;stroke-width:0.8;"/>
     </g>
     <g id="line2d_12">
      <g>
       <use style="stroke:#000000;stroke-width:0.8;" x="438.75" xlink:href="#m2be584235d" y="315"/>
      </g>
     </g>
     <g id="text_6">
      <!-- 125 -->
      <g transform="translate(429.20625 329.598437)scale(0.1 -0.1)">
       <use xlink:href="#DejaVuSans-49"/>
       <use x="63.623047" xlink:href="#DejaVuSans-50"/>
       <use x="127.246094" xlink:href="#DejaVuSans-53"/>
      </g>
     </g>
    </g>
    <g id="xtick_7">
     <g id="line2d_13">
      <path clip-path="url(#p58fb9bdcfa)" d="M 508.5 315 
L 508.5 43.2 
" style="fill:none;stroke:#b0b0b0;stroke-dasharray:2.96,1.28;stroke-dashoffset:0;stroke-width:0.8;"/>
     </g>
     <g id="line2d_14">
      <g>
       <use style="stroke:#000000;stroke-width:0.8;" x="508.5" xlink:href="#m2be584235d" y="315"/>
      </g>
     </g>
     <g id="text_7">
      <!-- 150 -->
      <g transform="translate(498.95625 329.598437)scale(0.1 -0.1)">
       <use xlink:href="#DejaVuSans-49"/>
       <use x="63.623047" xlink:href="#DejaVuSans-53"/>
       <use x="127.246094" xlink:href="#DejaVuSans-48"/>
      </g>
     </g>
    </g>
    <g id="xtick_8">
     <g id="line2d_15">
      <path clip-path="url(#p58fb9bdcfa)" d="M 578.25 315 
L 578.25 43.2 
" style="fill:none;stroke:#b0b0b0;stroke-dasharray:2.96,1.28;stroke-dashoffset:0;stroke-width:0.8;"/>
     </g>
     <g id="line2d_16">
      <g>
       <use style="stroke:#000000;stroke-width:0.8;" x="578.25" xlink:href="#m2be584235d" y="315"/>
      </g>
     </g>
     <g id="text_8">
      <!-- 175 -->
      <g transform="translate(568.70625 329.598437)scale(0.1 -0.1)">
       <use xlink:href="#DejaVuSans-49"/>
       <use x="63.623047" xlink:href="#DejaVuSans-55"/>
       <use x="127.246094" xlink:href="#DejaVuSans-53"/>
      </g>
     </g>
    </g>
    <g id="xtick_9">
     <g id="line2d_17">
      <path clip-path="url(#p58fb9bdcfa)" d="M 648 315 
L 648 43.2 
" style="fill:none;stroke:#b0b0b0;stroke-dasharray:2.96,1.28;stroke-dashoffset:0;stroke-width:0.8;"/>
     </g>
     <g id="line2d_18">
      <g>
       <use style="stroke:#000000;stroke-width:0.8;" x="648" xlink:href="#m2be584235d" y="315"/>
      </g>
     </g>
     <g id="text_9">
      <!-- 200 -->
      <g transform="translate(638.45625 329.598437)scale(0.1 -0.1)">
       <use xlink:href="#DejaVuSans-50"/>
       <use x="63.623047" xlink:href="#DejaVuSans-48"/>
       <use x="127.246094" xlink:href="#DejaVuSans-48"/>
      </g>
     </g>
    </g>
    <g id="text_10">
     <!-- Flow Q [ml/s] -->
     <defs>
      <path d="M 9.8125 72.90625 
L 51.703125 72.90625 
L 51.703125 64.59375 
L 19.671875 64.59375 
L 19.671875 43.109375 
L 48.578125 43.109375 
L 48.578125 34.8125 
L 19.671875 34.8125 
L 19.671875 0 
L 9.8125 0 
z
" id="DejaVuSans-70"/>
      <path d="M 9.421875 75.984375 
L 18.40625 75.984375 
L 18.40625 0 
L 9.421875 0 
z
" id="DejaVuSans-108"/>
      <path d="M 30.609375 48.390625 
Q 23.390625 48.390625 19.1875 42.75 
Q 14.984375 37.109375 14.984375 27.296875 
Q 14.984375 17.484375 19.15625 11.84375 
Q 23.34375 6.203125 30.609375 6.203125 
Q 37.796875 6.203125 41.984375 11.859375 
Q 46.1875 17.53125 46.1875 27.296875 
Q 46.1875 37.015625 41.984375 42.703125 
Q 37.796875 48.390625 30.609375 48.390625 
z
M 30.609375 56 
Q 42.328125 56 49.015625 48.375 
Q 55.71875 40.765625 55.71875 27.296875 
Q 55.71875 13.875 49.015625 6.21875 
Q 42.328125 -1.421875 30.609375 -1.421875 
Q 18.84375 -1.421875 12.171875 6.21875 
Q 5.515625 13.875 5.515625 27.296875 
Q 5.515625 40.765625 12.171875 48.375 
Q 18.84375 56 30.609375 56 
z
" id="DejaVuSans-111"/>
      <path d="M 4.203125 54.6875 
L 13.1875 54.6875 
L 24.421875 12.015625 
L 35.59375 54.6875 
L 46.1875 54.6875 
L 57.421875 12.015625 
L 68.609375 54.6875 
L 77.59375 54.6875 
L 63.28125 0 
L 52.6875 0 
L 40.921875 44.828125 
L 29.109375 0 
L 18.5 0 
z
" id="DejaVuSans-119"/>
      <path id="DejaVuSans-32"/>
      <path d="M 39.40625 66.21875 
Q 28.65625 66.21875 22.328125 58.203125 
Q 16.015625 50.203125 16.015625 36.375 
Q 16.015625 22.609375 22.328125 14.59375 
Q 28.65625 6.59375 39.40625 6.59375 
Q 50.140625 6.59375 56.421875 14.59375 
Q 62.703125 22.609375 62.703125 36.375 
Q 62.703125 50.203125 56.421875 58.203125 
Q 50.140625 66.21875 39.40625 66.21875 
z
M 53.21875 1.3125 
L 66.21875 -12.890625 
L 54.296875 -12.890625 
L 43.5 -1.21875 
Q 41.890625 -1.3125 41.03125 -1.359375 
Q 40.1875 -1.421875 39.40625 -1.421875 
Q 24.03125 -1.421875 14.8125 8.859375 
Q 5.609375 19.140625 5.609375 36.375 
Q 5.609375 53.65625 14.8125 63.9375 
Q 24.03125 74.21875 39.40625 74.21875 
Q 54.734375 74.21875 63.90625 63.9375 
Q 73.09375 53.65625 73.09375 36.375 
Q 73.09375 23.6875 67.984375 14.640625 
Q 62.890625 5.609375 53.21875 1.3125 
z
" id="DejaVuSans-81"/>
      <path d="M 8.59375 75.984375 
L 29.296875 75.984375 
L 29.296875 69 
L 17.578125 69 
L 17.578125 -6.203125 
L 29.296875 -6.203125 
L 29.296875 -13.1875 
L 8.59375 -13.1875 
z
" id="DejaVuSans-91"/>
      <path d="M 52 44.1875 
Q 55.375 50.25 60.0625 53.125 
Q 64.75 56 71.09375 56 
Q 79.640625 56 84.28125 50.015625 
Q 88.921875 44.046875 88.921875 33.015625 
L 88.921875 0 
L 79.890625 0 
L 79.890625 32.71875 
Q 79.890625 40.578125 77.09375 44.375 
Q 74.3125 48.1875 68.609375 48.1875 
Q 61.625 48.1875 57.5625 43.546875 
Q 53.515625 38.921875 53.515625 30.90625 
L 53.515625 0 
L 44.484375 0 
L 44.484375 32.71875 
Q 44.484375 40.625 41.703125 44.40625 
Q 38.921875 48.1875 33.109375 48.1875 
Q 26.21875 48.1875 22.15625 43.53125 
Q 18.109375 38.875 18.109375 30.90625 
L 18.109375 0 
L 9.078125 0 
L 9.078125 54.6875 
L 18.109375 54.6875 
L 18.109375 46.1875 
Q 21.1875 51.21875 25.484375 53.609375 
Q 29.78125 56 35.6875 56 
Q 41.65625 56 45.828125 52.96875 
Q 50 49.953125 52 44.1875 
z
" id="DejaVuSans-109"/>
      <path d="M 25.390625 72.90625 
L 33.6875 72.90625 
L 8.296875 -9.28125 
L 0 -9.28125 
z
" id="DejaVuSans-47"/>
      <path d="M 44.28125 53.078125 
L 44.28125 44.578125 
Q 40.484375 46.53125 36.375 47.5 
Q 32.28125 48.484375 27.875 48.484375 
Q 21.1875 48.484375 17.84375 46.4375 
Q 14.5 44.390625 14.5 40.28125 
Q 14.5 37.15625 16.890625 35.375 
Q 19.28125 33.59375 26.515625 31.984375 
L 29.59375 31.296875 
Q 39.15625 29.25 43.1875 25.515625 
Q 47.21875 21.78125 47.21875 15.09375 
Q 47.21875 7.46875 41.1875 3.015625 
Q 35.15625 -1.421875 24.609375 -1.421875 
Q 20.21875 -1.421875 15.453125 -0.5625 
Q 10.6875 0.296875 5.421875 2 
L 5.421875 11.28125 
Q 10.40625 8.6875 15.234375 7.390625 
Q 20.0625 6.109375 24.8125 6.109375 
Q 31.15625 6.109375 34.5625 8.28125 
Q 37.984375 10.453125 37.984375 14.40625 
Q 37.984375 18.0625 35.515625 20.015625 
Q 33.0625 21.96875 24.703125 23.78125 
L 21.578125 24.515625 
Q 13.234375 26.265625 9.515625 29.90625 
Q 5.8125 33.546875 5.8125 39.890625 
Q 5.8125 47.609375 11.28125 51.796875 
Q 16.75 56 26.8125 56 
Q 31.78125 56 36.171875 55.265625 
Q 40.578125 54.546875 44.28125 53.078125 
z
" id="DejaVuSans-115"/>
      <path d="M 30.421875 75.984375 
L 30.421875 -13.1875 
L 9.71875 -13.1875 
L 9.71875 -6.203125 
L 21.390625 -6.203125 
L 21.390625 69 
L 9.71875 69 
L 9.71875 75.984375 
z
" id="DejaVuSans-93"/>
     </defs>
     <g transform="translate(336.022656 343.276563)scale(0.1 -0.1)">
      <use xlink:href="#DejaVuSans-70"/>
      <use x="57.519531" xlink:href="#DejaVuSans-108"/>
      <use x="85.302734" xlink:href="#DejaVuSans-111"/>
      <use x="146.484375" xlink:href="#DejaVuSans-119"/>
      <use x="228.271484" xlink:href="#DejaVuSans-32"/>
      <use x="260.058594" xlink:href="#DejaVuSans-81"/>
      <use x="338.769531" xlink:href="#DejaVuSans-32"/>
      <use x="370.556641" xlink:href="#DejaVuSans-91"/>
      <use x="409.570312" xlink:href="#DejaVuSans-109"/>
      <use x="506.982422" xlink:href="#DejaVuSans-108"/>
      <use x="534.765625" xlink:href="#DejaVuSans-47"/>
      <use x="568.457031" xlink:href="#DejaVuSans-115"/>
      <use x="620.556641" xlink:href="#DejaVuSans-93"/>
     </g>
    </g>
   </g>
   <g id="matplotlib.axis_2">
    <g id="ytick_1">
     <g id="line2d_19">
      <path clip-path="url(#p58fb9bdcfa)" d="M 90 315 
L 648 315 
" style="fill:none;stroke:#b0b0b0;stroke-dasharray:2.96,1.28;stroke-dashoffset:0;stroke-width:0.8;"/>
     </g>
     <g id="line2d_20">
      <defs>
       <path d="M 0 0 
L -3.5 0 
" id="m61724f160b" style="stroke:#000000;stroke-width:0.8;"/>
      </defs>
      <g>
       <use style="stroke:#000000;stroke-width:0.8;" x="90" xlink:href="#m61724f160b" y="315"/>
      </g>
     </g>
     <g id="text_11">
      <!-- 0 -->
      <g transform="translate(76.6375 318.799219)scale(0.1 -0.1)">
       <use xlink:href="#DejaVuSans-48"/>
      </g>
     </g>
    </g>
    <g id="ytick_2">
     <g id="line2d_21">
      <path clip-path="url(#p58fb9bdcfa)" d="M 90 269.7 
L 648 269.7 
" style="fill:none;stroke:#b0b0b0;stroke-dasharray:2.96,1.28;stroke-dashoffset:0;stroke-width:0.8;"/>
     </g>
     <g id="line2d_22">
      <g>
       <use style="stroke:#000000;stroke-width:0.8;" x="90" xlink:href="#m61724f160b" y="269.7"/>
      </g>
     </g>
     <g id="text_12">
      <!-- 50 -->
      <g transform="translate(70.275 273.499219)scale(0.1 -0.1)">
       <use xlink:href="#DejaVuSans-53"/>
       <use x="63.623047" xlink:href="#DejaVuSans-48"/>
      </g>
     </g>
    </g>
    <g id="ytick_3">
     <g id="line2d_23">
      <path clip-path="url(#p58fb9bdcfa)" d="M 90 224.4 
L 648 224.4 
" style="fill:none;stroke:#b0b0b0;stroke-dasharray:2.96,1.28;stroke-dashoffset:0;stroke-width:0.8;"/>
     </g>
     <g id="line2d_24">
      <g>
       <use style="stroke:#000000;stroke-width:0.8;" x="90" xlink:href="#m61724f160b" y="224.4"/>
      </g>
     </g>
     <g id="text_13">
      <!-- 100 -->
      <g transform="translate(63.9125 228.199219)scale(0.1 -0.1)">
       <use xlink:href="#DejaVuSans-49"/>
       <use x="63.623047" xlink:href="#DejaVuSans-48"/>
       <use x="127.246094" xlink:href="#DejaVuSans-48"/>
      </g>
     </g>
    </g>
    <g id="ytick_4">
     <g id="line2d_25">
      <path clip-path="url(#p58fb9bdcfa)" d="M 90 179.1 
L 648 179.1 
" style="fill:none;stroke:#b0b0b0;stroke-dasharray:2.96,1.28;stroke-dashoffset:0;stroke-width:0.8;"/>
     </g>
     <g id="line2d_26">
      <g>
       <use style="stroke:#000000;stroke-width:0.8;" x="90" xlink:href="#m61724f160b" y="179.1"/>
      </g>
     </g>
     <g id="text_14">
      <!-- 150 -->
      <g transform="translate(63.9125 182.899219)scale(0.1 -0.1)">
       <use xlink:href="#DejaVuSans-49"/>
       <use x="63.623047" xlink:href="#DejaVuSans-53"/>
       <use x="127.246094" xlink:href="#DejaVuSans-48"/>
      </g>
     </g>
    </g>
    <g id="ytick_5">
     <g id="line2d_27">
      <path clip-path="url(#p58fb9bdcfa)" d="M 90 133.8 
L 648 133.8 
" style="fill:none;stroke:#b0b0b0;stroke-dasharray:2.96,1.28;stroke-dashoffset:0;stroke-width:0.8;"/>
     </g>
     <g id="line2d_28">
      <g>
       <use style="stroke:#000000;stroke-width:0.8;" x="90" xlink:href="#m61724f160b" y="133.8"/>
      </g>
     </g>
     <g id="text_15">
      <!-- 200 -->
      <g transform="translate(63.9125 137.599219)scale(0.1 -0.1)">
       <use xlink:href="#DejaVuSans-50"/>
       <use x="63.623047" xlink:href="#DejaVuSans-48"/>
       <use x="127.246094" xlink:href="#DejaVuSans-48"/>
      </g>
     </g>
    </g>
    <g id="ytick_6">
     <g id="line2d_29">
      <path clip-path="url(#p58fb9bdcfa)" d="M 90 88.5 
L 648 88.5 
" style="fill:none;stroke:#b0b0b0;stroke-dasharray:2.96,1.28;stroke-dashoffset:0;stroke-width:0.8;"/>
     </g>
     <g id="line2d_30">
      <g>
       <use style="stroke:#000000;stroke-width:0.8;" x="90" xlink:href="#m61724f160b" y="88.5"/>
      </g>
     </g>
     <g id="text_16">
      <!-- 250 -->
      <g transform="translate(63.9125 92.299219)scale(0.1 -0.1)">
       <use xlink:href="#DejaVuSans-50"/>
       <use x="63.623047" xlink:href="#DejaVuSans-53"/>
       <use x="127.246094" xlink:href="#DejaVuSans-48"/>
      </g>
     </g>
    </g>
    <g id="ytick_7">
     <g id="line2d_31">
      <path clip-path="url(#p58fb9bdcfa)" d="M 90 43.2 
L 648 43.2 
" style="fill:none;stroke:#b0b0b0;stroke-dasharray:2.96,1.28;stroke-dashoffset:0;stroke-width:0.8;"/>
     </g>
     <g id="line2d_32">
      <g>
       <use style="stroke:#000000;stroke-width:0.8;" x="90" xlink:href="#m61724f160b" y="43.2"/>
      </g>
     </g>
     <g id="text_17">
      <!-- 300 -->
      <defs>
       <path d="M 40.578125 39.3125 
Q 47.65625 37.796875 51.625 33 
Q 55.609375 28.21875 55.609375 21.1875 
Q 55.609375 10.40625 48.1875 4.484375 
Q 40.765625 -1.421875 27.09375 -1.421875 
Q 22.515625 -1.421875 17.65625 -0.515625 
Q 12.796875 0.390625 7.625 2.203125 
L 7.625 11.71875 
Q 11.71875 9.328125 16.59375 8.109375 
Q 21.484375 6.890625 26.8125 6.890625 
Q 36.078125 6.890625 40.9375 10.546875 
Q 45.796875 14.203125 45.796875 21.1875 
Q 45.796875 27.640625 41.28125 31.265625 
Q 36.765625 34.90625 28.71875 34.90625 
L 20.21875 34.90625 
L 20.21875 43.015625 
L 29.109375 43.015625 
Q 36.375 43.015625 40.234375 45.921875 
Q 44.09375 48.828125 44.09375 54.296875 
Q 44.09375 59.90625 40.109375 62.90625 
Q 36.140625 65.921875 28.71875 65.921875 
Q 24.65625 65.921875 20.015625 65.03125 
Q 15.375 64.15625 9.8125 62.3125 
L 9.8125 71.09375 
Q 15.4375 72.65625 20.34375 73.4375 
Q 25.25 74.21875 29.59375 74.21875 
Q 40.828125 74.21875 47.359375 69.109375 
Q 53.90625 64.015625 53.90625 55.328125 
Q 53.90625 49.265625 50.4375 45.09375 
Q 46.96875 40.921875 40.578125 39.3125 
z
" id="DejaVuSans-51"/>
      </defs>
      <g transform="translate(63.9125 46.999219)scale(0.1 -0.1)">
       <use xlink:href="#DejaVuSans-51"/>
       <use x="63.623047" xlink:href="#DejaVuSans-48"/>
       <use x="127.246094" xlink:href="#DejaVuSans-48"/>
      </g>
     </g>
    </g>
    <g id="text_18">
     <!-- Pressure head dP [mmHg] -->
     <defs>
      <path d="M 19.671875 64.796875 
L 19.671875 37.40625 
L 32.078125 37.40625 
Q 38.96875 37.40625 42.71875 40.96875 
Q 46.484375 44.53125 46.484375 51.125 
Q 46.484375 57.671875 42.71875 61.234375 
Q 38.96875 64.796875 32.078125 64.796875 
z
M 9.8125 72.90625 
L 32.078125 72.90625 
Q 44.34375 72.90625 50.609375 67.359375 
Q 56.890625 61.8125 56.890625 51.125 
Q 56.890625 40.328125 50.609375 34.8125 
Q 44.34375 29.296875 32.078125 29.296875 
L 19.671875 29.296875 
L 19.671875 0 
L 9.8125 0 
z
" id="DejaVuSans-80"/>
      <path d="M 41.109375 46.296875 
Q 39.59375 47.171875 37.8125 47.578125 
Q 36.03125 48 33.890625 48 
Q 26.265625 48 22.1875 43.046875 
Q 18.109375 38.09375 18.109375 28.8125 
L 18.109375 0 
L 9.078125 0 
L 9.078125 54.6875 
L 18.109375 54.6875 
L 18.109375 46.1875 
Q 20.953125 51.171875 25.484375 53.578125 
Q 30.03125 56 36.53125 56 
Q 37.453125 56 38.578125 55.875 
Q 39.703125 55.765625 41.0625 55.515625 
z
" id="DejaVuSans-114"/>
      <path d="M 56.203125 29.59375 
L 56.203125 25.203125 
L 14.890625 25.203125 
Q 15.484375 15.921875 20.484375 11.0625 
Q 25.484375 6.203125 34.421875 6.203125 
Q 39.59375 6.203125 44.453125 7.46875 
Q 49.3125 8.734375 54.109375 11.28125 
L 54.109375 2.78125 
Q 49.265625 0.734375 44.1875 -0.34375 
Q 39.109375 -1.421875 33.890625 -1.421875 
Q 20.796875 -1.421875 13.15625 6.1875 
Q 5.515625 13.8125 5.515625 26.8125 
Q 5.515625 40.234375 12.765625 48.109375 
Q 20.015625 56 32.328125 56 
Q 43.359375 56 49.78125 48.890625 
Q 56.203125 41.796875 56.203125 29.59375 
z
M 47.21875 32.234375 
Q 47.125 39.59375 43.09375 43.984375 
Q 39.0625 48.390625 32.421875 48.390625 
Q 24.90625 48.390625 20.390625 44.140625 
Q 15.875 39.890625 15.1875 32.171875 
z
" id="DejaVuSans-101"/>
      <path d="M 8.5 21.578125 
L 8.5 54.6875 
L 17.484375 54.6875 
L 17.484375 21.921875 
Q 17.484375 14.15625 20.5 10.265625 
Q 23.53125 6.390625 29.59375 6.390625 
Q 36.859375 6.390625 41.078125 11.03125 
Q 45.3125 15.671875 45.3125 23.6875 
L 45.3125 54.6875 
L 54.296875 54.6875 
L 54.296875 0 
L 45.3125 0 
L 45.3125 8.40625 
Q 42.046875 3.421875 37.71875 1 
Q 33.40625 -1.421875 27.6875 -1.421875 
Q 18.265625 -1.421875 13.375 4.4375 
Q 8.5 10.296875 8.5 21.578125 
z
M 31.109375 56 
z
" id="DejaVuSans-117"/>
      <path d="M 54.890625 33.015625 
L 54.890625 0 
L 45.90625 0 
L 45.90625 32.71875 
Q 45.90625 40.484375 42.875 44.328125 
Q 39.84375 48.1875 33.796875 48.1875 
Q 26.515625 48.1875 22.3125 43.546875 
Q 18.109375 38.921875 18.109375 30.90625 
L 18.109375 0 
L 9.078125 0 
L 9.078125 75.984375 
L 18.109375 75.984375 
L 18.109375 46.1875 
Q 21.34375 51.125 25.703125 53.5625 
Q 30.078125 56 35.796875 56 
Q 45.21875 56 50.046875 50.171875 
Q 54.890625 44.34375 54.890625 33.015625 
z
" id="DejaVuSans-104"/>
      <path d="M 34.28125 27.484375 
Q 23.390625 27.484375 19.1875 25 
Q 14.984375 22.515625 14.984375 16.5 
Q 14.984375 11.71875 18.140625 8.90625 
Q 21.296875 6.109375 26.703125 6.109375 
Q 34.1875 6.109375 38.703125 11.40625 
Q 43.21875 16.703125 43.21875 25.484375 
L 43.21875 27.484375 
z
M 52.203125 31.203125 
L 52.203125 0 
L 43.21875 0 
L 43.21875 8.296875 
Q 40.140625 3.328125 35.546875 0.953125 
Q 30.953125 -1.421875 24.3125 -1.421875 
Q 15.921875 -1.421875 10.953125 3.296875 
Q 6 8.015625 6 15.921875 
Q 6 25.140625 12.171875 29.828125 
Q 18.359375 34.515625 30.609375 34.515625 
L 43.21875 34.515625 
L 43.21875 35.40625 
Q 43.21875 41.609375 39.140625 45 
Q 35.0625 48.390625 27.6875 48.390625 
Q 23 48.390625 18.546875 47.265625 
Q 14.109375 46.140625 10.015625 43.890625 
L 10.015625 52.203125 
Q 14.9375 54.109375 19.578125 55.046875 
Q 24.21875 56 28.609375 56 
Q 40.484375 56 46.34375 49.84375 
Q 52.203125 43.703125 52.203125 31.203125 
z
" id="DejaVuSans-97"/>
      <path d="M 45.40625 46.390625 
L 45.40625 75.984375 
L 54.390625 75.984375 
L 54.390625 0 
L 45.40625 0 
L 45.40625 8.203125 
Q 42.578125 3.328125 38.25 0.953125 
Q 33.9375 -1.421875 27.875 -1.421875 
Q 17.96875 -1.421875 11.734375 6.484375 
Q 5.515625 14.40625 5.515625 27.296875 
Q 5.515625 40.1875 11.734375 48.09375 
Q 17.96875 56 27.875 56 
Q 33.9375 56 38.25 53.625 
Q 42.578125 51.265625 45.40625 46.390625 
z
M 14.796875 27.296875 
Q 14.796875 17.390625 18.875 11.75 
Q 22.953125 6.109375 30.078125 6.109375 
Q 37.203125 6.109375 41.296875 11.75 
Q 45.40625 17.390625 45.40625 27.296875 
Q 45.40625 37.203125 41.296875 42.84375 
Q 37.203125 48.484375 30.078125 48.484375 
Q 22.953125 48.484375 18.875 42.84375 
Q 14.796875 37.203125 14.796875 27.296875 
z
" id="DejaVuSans-100"/>
      <path d="M 9.8125 72.90625 
L 19.671875 72.90625 
L 19.671875 43.015625 
L 55.515625 43.015625 
L 55.515625 72.90625 
L 65.375 72.90625 
L 65.375 0 
L 55.515625 0 
L 55.515625 34.71875 
L 19.671875 34.71875 
L 19.671875 0 
L 9.8125 0 
z
" id="DejaVuSans-72"/>
      <path d="M 45.40625 27.984375 
Q 45.40625 37.75 41.375 43.109375 
Q 37.359375 48.484375 30.078125 48.484375 
Q 22.859375 48.484375 18.828125 43.109375 
Q 14.796875 37.75 14.796875 27.984375 
Q 14.796875 18.265625 18.828125 12.890625 
Q 22.859375 7.515625 30.078125 7.515625 
Q 37.359375 7.515625 41.375 12.890625 
Q 45.40625 18.265625 45.40625 27.984375 
z
M 54.390625 6.78125 
Q 54.390625 -7.171875 48.1875 -13.984375 
Q 42 -20.796875 29.203125 -20.796875 
Q 24.46875 -20.796875 20.265625 -20.09375 
Q 16.0625 -19.390625 12.109375 -17.921875 
L 12.109375 -9.1875 
Q 16.0625 -11.328125 19.921875 -12.34375 
Q 23.78125 -13.375 27.78125 -13.375 
Q 36.625 -13.375 41.015625 -8.765625 
Q 45.40625 -4.15625 45.40625 5.171875 
L 45.40625 9.625 
Q 42.625 4.78125 38.28125 2.390625 
Q 33.9375 0 27.875 0 
Q 17.828125 0 11.671875 7.65625 
Q 5.515625 15.328125 5.515625 27.984375 
Q 5.515625 40.671875 11.671875 48.328125 
Q 17.828125 56 27.875 56 
Q 33.9375 56 38.28125 53.609375 
Q 42.625 51.21875 45.40625 46.390625 
L 45.40625 54.6875 
L 54.390625 54.6875 
z
" id="DejaVuSans-103"/>
     </defs>
     <g transform="translate(57.832812 244.460938)rotate(-90)scale(0.1 -0.1)">
      <use xlink:href="#DejaVuSans-80"/>
      <use x="58.552734" xlink:href="#DejaVuSans-114"/>
      <use x="97.416016" xlink:href="#DejaVuSans-101"/>
      <use x="158.939453" xlink:href="#DejaVuSans-115"/>
      <use x="211.039062" xlink:href="#DejaVuSans-115"/>
      <use x="263.138672" xlink:href="#DejaVuSans-117"/>
      <use x="326.517578" xlink:href="#DejaVuSans-114"/>
      <use x="365.380859" xlink:href="#DejaVuSans-101"/>
      <use x="426.904297" xlink:href="#DejaVuSans-32"/>
      <use x="458.691406" xlink:href="#DejaVuSans-104"/>
      <use x="522.070312" xlink:href="#DejaVuSans-101"/>
      <use x="583.59375" xlink:href="#DejaVuSans-97"/>
      <use x="644.873047" xlink:href="#DejaVuSans-100"/>
      <use x="708.349609" xlink:href="#DejaVuSans-32"/>
      <use x="740.136719" xlink:href="#DejaVuSans-100"/>
      <use x="803.613281" xlink:href="#DejaVuSans-80"/>
      <use x="863.916016" xlink:href="#DejaVuSans-32"/>
      <use x="895.703125" xlink:href="#DejaVuSans-91"/>
      <use x="934.716797" xlink:href="#DejaVuSans-109"/>
      <use x="1032.128906" xlink:href="#DejaVuSans-109"/>
      <use x="1129.541016" xlink:href="#DejaVuSans-72"/>
      <use x="1204.736328" xlink:href="#DejaVuSans-103"/>
      <use x="1268.212891" xlink:href="#DejaVuSans-93"/>
     </g>
    </g>
   </g>
   <g id="line2d_33">
    <path clip-path="url(#p58fb9bdcfa)" d="M 90 286.057695 
L 102.288288 286.408622 
L 114.576577 286.985203 
L 126.864865 287.787439 
L 139.153153 288.81533 
L 151.441441 290.068876 
L 163.72973 291.548076 
L 176.018018 293.252931 
L 188.306306 295.183441 
L 200.594595 297.339605 
L 212.882883 299.721425 
L 225.171171 302.328899 
L 237.459459 305.162027 
L 249.747748 308.220811 
L 262.036036 311.505249 
L 274.324324 315.015342 
L 286.612613 318.751089 
L 298.900901 322.712491 
L 311.189189 326.899548 
L 323.477477 331.31226 
L 336.324324 336.166823 
L 349.171171 341.268021 
L 362.018018 346.615854 
L 374.864865 352.210322 
L 387.711712 358.051425 
L 393.998973 361 
L 393.998973 361 
" style="fill:none;stroke:#1f77b4;stroke-linecap:square;stroke-width:1.5;"/>
   </g>
   <g id="line2d_34">
    <path clip-path="url(#p58fb9bdcfa)" d="M 90 262.633938 
L 101.171171 262.652336 
L 112.342342 262.894951 
L 123.513514 263.361782 
L 134.684685 264.05283 
L 145.855856 264.968094 
L 157.027027 266.107574 
L 168.198198 267.471271 
L 179.369369 269.059185 
L 190.540541 270.871315 
L 201.711712 272.907661 
L 212.882883 275.168224 
L 224.054054 277.653004 
L 235.225225 280.362 
L 246.396396 283.295212 
L 257.567568 286.452641 
L 268.738739 289.834287 
L 279.90991 293.440149 
L 291.081081 297.270227 
L 302.810811 301.533123 
L 314.540541 306.043217 
L 326.27027 310.80051 
L 338 315.805001 
L 349.72973 321.056691 
L 361.459459 326.55558 
L 373.189189 332.301668 
L 384.918919 338.294954 
L 396.648649 344.535439 
L 408.378378 351.023123 
L 420.108108 357.758005 
L 425.606228 361 
L 425.606228 361 
" style="fill:none;stroke:#ff7f0e;stroke-linecap:square;stroke-width:1.5;"/>
   </g>
   <g id="line2d_35">
    <path clip-path="url(#p58fb9bdcfa)" d="M 90 234.366 
L 101.171171 234.205044 
L 112.342342 234.266322 
L 123.513514 234.549832 
L 134.684685 235.055576 
L 145.855856 235.783553 
L 157.027027 236.733762 
L 168.198198 237.906205 
L 179.369369 239.300881 
L 190.540541 240.91779 
L 201.711712 242.756931 
L 212.882883 244.818306 
L 224.054054 247.101914 
L 235.225225 249.607755 
L 246.396396 252.335829 
L 257.567568 255.286136 
L 268.738739 258.458676 
L 279.90991 261.85345 
L 291.081081 265.470456 
L 302.810811 269.507491 
L 314.540541 273.789537 
L 326.27027 278.316596 
L 338 283.088667 
L 349.72973 288.105749 
L 361.459459 293.367844 
L 373.189189 298.87495 
L 384.918919 304.627068 
L 396.648649 310.624199 
L 408.378378 316.866341 
L 420.108108 323.353495 
L 431.837838 330.085661 
L 444.126126 337.401197 
L 456.414414 344.985635 
L 468.702703 352.838975 
L 481.048669 361 
L 481.048669 361 
" style="fill:none;stroke:#2ca02c;stroke-linecap:square;stroke-width:1.5;"/>
   </g>
   <g id="line2d_36">
    <path clip-path="url(#p58fb9bdcfa)" d="M 90 198.627595 
L 100.612613 198.074927 
L 111.225225 197.741583 
L 121.837838 197.627562 
L 132.45045 197.732864 
L 143.063063 198.05749 
L 153.675676 198.601439 
L 164.288288 199.364712 
L 174.900901 200.347308 
L 185.513514 201.549227 
L 196.126126 202.97047 
L 206.738739 204.611037 
L 217.351351 206.470927 
L 227.963964 208.55014 
L 238.576577 210.848677 
L 249.189189 213.366537 
L 259.801802 216.103721 
L 270.414414 219.060228 
L 281.585586 222.409283 
L 292.756757 226.001355 
L 303.927928 229.836445 
L 315.099099 233.914553 
L 326.27027 238.235679 
L 337.441441 242.799822 
L 348.612613 247.606983 
L 359.783784 252.657162 
L 370.954955 257.950358 
L 382.126126 263.486572 
L 393.297297 269.265803 
L 404.468468 275.288052 
L 415.63964 281.553319 
L 427.369369 288.393397 
L 439.099099 295.501402 
L 450.828829 302.877334 
L 462.558559 310.521193 
L 474.288288 318.432978 
L 486.018018 326.612691 
L 497.747748 335.060331 
L 509.477477 343.775898 
L 521.207207 352.759391 
L 531.671615 361 
L 531.671615 361 
" style="fill:none;stroke:#d62728;stroke-linecap:square;stroke-width:1.5;"/>
   </g>
   <g id="line2d_37">
    <path clip-path="url(#p58fb9bdcfa)" d="M 90 156.158496 
L 101.72973 155.813541 
L 113.459459 155.697938 
L 125.189189 155.811686 
L 136.918919 156.154787 
L 148.648649 156.72724 
L 160.378378 157.529045 
L 172.108108 158.560202 
L 183.837838 159.820711 
L 195.567568 161.310572 
L 207.297297 163.029786 
L 219.027027 164.978351 
L 230.756757 167.156268 
L 242.486486 169.563538 
L 254.216216 172.20016 
L 265.945946 175.066133 
L 277.675676 178.161459 
L 289.405405 181.486137 
L 301.135135 185.040167 
L 312.864865 188.823549 
L 324.594595 192.836283 
L 336.324324 197.078369 
L 348.054054 201.549807 
L 359.783784 206.250598 
L 371.513514 211.18074 
L 383.801802 216.591645 
L 396.09009 222.254266 
L 408.378378 228.168602 
L 420.666667 234.334653 
L 432.954955 240.752419 
L 445.243243 247.421901 
L 457.531532 254.343098 
L 469.81982 261.51601 
L 482.108108 268.940637 
L 494.396396 276.616979 
L 507.243243 284.911384 
L 520.09009 293.480907 
L 532.936937 302.325548 
L 545.783784 311.445308 
L 558.630631 320.840187 
L 571.477477 330.510184 
L 584.324324 340.455299 
L 597.171171 350.675533 
L 609.811435 361 
L 609.811435 361 
" style="fill:none;stroke:#9467bd;stroke-linecap:square;stroke-width:1.5;"/>
   </g>
   <g id="line2d_38">
    <path clip-path="url(#p58fb9bdcfa)" d="M 90 110.247736 
L 101.171171 109.485087 
L 112.342342 108.949999 
L 123.513514 108.642473 
L 134.684685 108.562509 
L 145.855856 108.710107 
L 157.027027 109.085267 
L 168.198198 109.687988 
L 179.369369 110.518271 
L 190.540541 111.576117 
L 201.711712 112.861524 
L 212.882883 114.374493 
L 224.054054 116.115024 
L 235.225225 118.083116 
L 246.396396 120.278771 
L 257.567568 122.701987 
L 268.738739 125.352766 
L 279.90991 128.231106 
L 291.081081 131.337008 
L 302.252252 134.670472 
L 313.423423 138.231497 
L 324.594595 142.020085 
L 335.765766 146.036234 
L 346.936937 150.279946 
L 358.108108 154.751219 
L 369.837838 159.690969 
L 381.567568 164.881606 
L 393.297297 170.323131 
L 405.027027 176.015542 
L 416.756757 181.95884 
L 428.486486 188.153025 
L 440.216216 194.598097 
L 451.945946 201.294056 
L 463.675676 208.240902 
L 475.405405 215.438634 
L 487.135135 222.887254 
L 499.423423 230.959662 
L 511.711712 239.30742 
L 524 247.930527 
L 536.288288 256.828985 
L 548.576577 266.002792 
L 560.864865 275.451949 
L 573.153153 285.176456 
L 585.441441 295.176313 
L 598.288288 305.925117 
L 611.135135 316.974871 
L 623.981982 328.325576 
L 636.828829 339.977232 
L 648 350.353735 
L 648 350.353735 
" style="fill:none;stroke:#8c564b;stroke-linecap:square;stroke-width:1.5;"/>
   </g>
   <g id="line2d_39">
    <path clip-path="url(#p58fb9bdcfa)" d="M 90 57.778376 
L 101.171171 56.859435 
L 112.342342 56.160736 
L 123.513514 55.682279 
L 134.684685 55.424064 
L 145.855856 55.386091 
L 157.027027 55.568361 
L 168.198198 55.970873 
L 179.369369 56.593628 
L 190.540541 57.436624 
L 201.711712 58.499863 
L 212.882883 59.783344 
L 224.054054 61.287068 
L 235.225225 63.011033 
L 246.396396 64.955241 
L 257.567568 67.119691 
L 268.738739 69.504384 
L 279.90991 72.109319 
L 291.081081 74.934496 
L 302.252252 77.979915 
L 313.423423 81.245576 
L 325.153153 84.911557 
L 336.882883 88.820354 
L 348.612613 92.971968 
L 360.342342 97.3664 
L 372.072072 102.003649 
L 383.801802 106.883715 
L 395.531532 112.006598 
L 407.261261 117.372297 
L 418.990991 122.980815 
L 430.720721 128.832149 
L 442.45045 134.9263 
L 454.18018 141.263268 
L 465.90991 147.843054 
L 478.198198 154.996599 
L 490.486486 162.416637 
L 502.774775 170.103169 
L 515.063063 178.056193 
L 527.351351 186.275711 
L 539.63964 194.761721 
L 551.927928 203.514225 
L 564.216216 212.533222 
L 576.504505 221.818713 
L 589.351351 231.811209 
L 602.198198 242.094976 
L 615.045045 252.670013 
L 627.891892 263.53632 
L 640.738739 274.693898 
L 648 281.129197 
L 648 281.129197 
" style="fill:none;stroke:#e377c2;stroke-linecap:square;stroke-width:1.5;"/>
   </g>
   <g id="patch_3">
    <path d="M 90 315 
L 90 43.2 
" style="fill:none;stroke:#000000;stroke-linecap:square;stroke-linejoin:miter;stroke-width:0.8;"/>
   </g>
   <g id="patch_4">
    <path d="M 648 315 
L 648 43.2 
" style="fill:none;stroke:#000000;stroke-linecap:square;stroke-linejoin:miter;stroke-width:0.8;"/>
   </g>
   <g id="patch_5">
    <path d="M 90 315 
L 648 315 
" style="fill:none;stroke:#000000;stroke-linecap:square;stroke-linejoin:miter;stroke-width:0.8;"/>
   </g>
   <g id="patch_6">
    <path d="M 90 43.2 
L 648 43.2 
" style="fill:none;stroke:#000000;stroke-linecap:square;stroke-linejoin:miter;stroke-width:0.8;"/>
   </g>
   <g id="text_19">
    <!-- Reconstructed HQ curve -->
    <defs>
     <path d="M 44.390625 34.1875 
Q 47.5625 33.109375 50.5625 29.59375 
Q 53.5625 26.078125 56.59375 19.921875 
L 66.609375 0 
L 56 0 
L 46.6875 18.703125 
Q 43.0625 26.03125 39.671875 28.421875 
Q 36.28125 30.8125 30.421875 30.8125 
L 19.671875 30.8125 
L 19.671875 0 
L 9.8125 0 
L 9.8125 72.90625 
L 32.078125 72.90625 
Q 44.578125 72.90625 50.734375 67.671875 
Q 56.890625 62.453125 56.890625 51.90625 
Q 56.890625 45.015625 53.6875 40.46875 
Q 50.484375 35.9375 44.390625 34.1875 
z
M 19.671875 64.796875 
L 19.671875 38.921875 
L 32.078125 38.921875 
Q 39.203125 38.921875 42.84375 42.21875 
Q 46.484375 45.515625 46.484375 51.90625 
Q 46.484375 58.296875 42.84375 61.546875 
Q 39.203125 64.796875 32.078125 64.796875 
z
" id="DejaVuSans-82"/>
     <path d="M 48.78125 52.59375 
L 48.78125 44.1875 
Q 44.96875 46.296875 41.140625 47.34375 
Q 37.3125 48.390625 33.40625 48.390625 
Q 24.65625 48.390625 19.8125 42.84375 
Q 14.984375 37.3125 14.984375 27.296875 
Q 14.984375 17.28125 19.8125 11.734375 
Q 24.65625 6.203125 33.40625 6.203125 
Q 37.3125 6.203125 41.140625 7.25 
Q 44.96875 8.296875 48.78125 10.40625 
L 48.78125 2.09375 
Q 45.015625 0.34375 40.984375 -0.53125 
Q 36.96875 -1.421875 32.421875 -1.421875 
Q 20.0625 -1.421875 12.78125 6.34375 
Q 5.515625 14.109375 5.515625 27.296875 
Q 5.515625 40.671875 12.859375 48.328125 
Q 20.21875 56 33.015625 56 
Q 37.15625 56 41.109375 55.140625 
Q 45.0625 54.296875 48.78125 52.59375 
z
" id="DejaVuSans-99"/>
     <path d="M 54.890625 33.015625 
L 54.890625 0 
L 45.90625 0 
L 45.90625 32.71875 
Q 45.90625 40.484375 42.875 44.328125 
Q 39.84375 48.1875 33.796875 48.1875 
Q 26.515625 48.1875 22.3125 43.546875 
Q 18.109375 38.921875 18.109375 30.90625 
L 18.109375 0 
L 9.078125 0 
L 9.078125 54.6875 
L 18.109375 54.6875 
L 18.109375 46.1875 
Q 21.34375 51.125 25.703125 53.5625 
Q 30.078125 56 35.796875 56 
Q 45.21875 56 50.046875 50.171875 
Q 54.890625 44.34375 54.890625 33.015625 
z
" id="DejaVuSans-110"/>
     <path d="M 18.3125 70.21875 
L 18.3125 54.6875 
L 36.8125 54.6875 
L 36.8125 47.703125 
L 18.3125 47.703125 
L 18.3125 18.015625 
Q 18.3125 11.328125 20.140625 9.421875 
Q 21.96875 7.515625 27.59375 7.515625 
L 36.8125 7.515625 
L 36.8125 0 
L 27.59375 0 
Q 17.1875 0 13.234375 3.875 
Q 9.28125 7.765625 9.28125 18.015625 
L 9.28125 47.703125 
L 2.6875 47.703125 
L 2.6875 54.6875 
L 9.28125 54.6875 
L 9.28125 70.21875 
z
" id="DejaVuSans-116"/>
     <path d="M 2.984375 54.6875 
L 12.5 54.6875 
L 29.59375 8.796875 
L 46.6875 54.6875 
L 56.203125 54.6875 
L 35.6875 0 
L 23.484375 0 
z
" id="DejaVuSans-118"/>
    </defs>
    <g transform="translate(295.876875 37.2)scale(0.12 -0.12)">
     <use xlink:href="#DejaVuSans-82"/>
     <use x="64.982422" xlink:href="#DejaVuSans-101"/>
     <use x="126.505859" xlink:href="#DejaVuSans-99"/>
     <use x="181.486328" xlink:href="#DejaVuSans-111"/>
     <use x="242.667969" xlink:href="#DejaVuSans-110"/>
     <use x="306.046875" xlink:href="#DejaVuSans-115"/>
     <use x="358.146484" xlink:href="#DejaVuSans-116"/>
     <use x="397.355469" xlink:href="#DejaVuSans-114"/>
     <use x="438.46875" xlink:href="#DejaVuSans-117"/>
     <use x="501.847656" xlink:href="#DejaVuSans-99"/>
     <use x="556.828125" xlink:href="#DejaVuSans-116"/>
     <use x="596.037109" xlink:href="#DejaVuSans-101"/>
     <use x="657.560547" xlink:href="#DejaVuSans-100"/>
     <use x="721.037109" xlink:href="#DejaVuSans-32"/>
     <use x="752.824219" xlink:href="#DejaVuSans-72"/>
     <use x="828.019531" xlink:href="#DejaVuSans-81"/>
     <use x="906.730469" xlink:href="#DejaVuSans-32"/>
     <use x="938.517578" xlink:href="#DejaVuSans-99"/>
     <use x="993.498047" xlink:href="#DejaVuSans-117"/>
     <use x="1056.876953" xlink:href="#DejaVuSans-114"/>
     <use x="1097.990234" xlink:href="#DejaVuSans-118"/>
     <use x="1157.169922" xlink:href="#DejaVuSans-101"/>
    </g>
   </g>
  </g>
 </g>
 <defs>
  <clipPath id="p58fb9bdcfa">
   <rect height="271.8" width="558" x="90" y="43.2"/>
  </clipPath>
 </defs>
</svg>
